<svg width="335" height="308" viewBox="0 0 335 308" fill="none" xmlns="http://www.w3.org/2000/svg">
<rect x="27" y="43" width="281" height="259" rx="25" fill="black"/>
<path d="M125.02 232.609C118.574 234.562 111.803 235.539 104.707 235.539C92.0768 235.539 81.0091 233.195 71.5039 228.508C61.9987 223.82 54.6094 216.984 49.3359 208C44.0625 199.016 41.4258 188.273 41.4258 175.773C41.4258 165.227 43.8021 154.842 48.5547 144.621C53.3073 134.4 60.9245 125.904 71.4062 119.133C81.9531 112.362 95.332 108.977 111.543 108.977C118.509 108.977 125.605 109.855 132.832 111.613C140.059 113.306 145.658 115.682 149.629 118.742L146.699 155.656L134.004 153.898L128.926 131.828C126.647 128.964 123.392 126.685 119.16 124.992C114.993 123.299 110.501 122.453 105.684 122.453C98.7174 122.453 92.6302 124.146 87.4219 127.531C82.2135 130.917 78.1771 135.93 75.3125 142.57C72.513 149.146 71.1133 157.089 71.1133 166.398C71.1133 177.206 72.9362 186.451 76.582 194.133C80.293 201.815 85.4362 207.642 92.0117 211.613C98.5872 215.585 106.204 217.57 114.863 217.57C121.178 217.57 127.201 216.464 132.93 214.25C138.724 211.971 144.03 209.074 148.848 205.559L153.535 215.812C150.801 219.003 146.992 222.128 142.109 225.188C137.227 228.182 131.53 230.656 125.02 232.609ZM257.344 224.309C245.56 230.103 231.66 233 215.645 233H161.348L163.105 222.648L180.293 214.934V130.168L163.496 126.457L164.277 115.031C173.783 113.534 183.385 112.362 193.086 111.516C202.786 110.604 211.152 110.148 218.184 110.148C245.853 110.148 265.319 115.65 276.582 126.652C287.91 137.655 293.574 151.88 293.574 169.328C293.574 180.656 290.482 191.203 284.297 200.969C278.112 210.669 269.128 218.449 257.344 224.309ZM210.762 125.188C210.046 125.318 209.004 125.415 207.637 125.48V218.059H218.379C229.251 218.059 238.04 215.943 244.746 211.711C251.517 207.414 256.335 202.01 259.199 195.5C262.064 188.924 263.496 181.958 263.496 174.602C263.496 166.008 261.706 157.935 258.125 150.383C254.544 142.831 249.076 136.711 241.719 132.023C234.362 127.336 225.28 124.992 214.473 124.992C213.171 124.992 211.934 125.057 210.762 125.188Z" fill="white"/>
</svg>
